<svg id="visual" viewBox="0 0 960 540" width="960" height="540" xmlns="http://www.w3.org/2000/svg" xmlns:xlink="http://www.w3.org/1999/xlink" version="1.1"><rect x="0" y="0" width="960" height="540" fill="#ffffff"></rect><g fill="#68d8d1"><circle r="51" cx="736" cy="165"></circle><circle r="26" cx="925" cy="454"></circle><circle r="43" cx="12" cy="490"></circle><circle r="38" cx="669" cy="439"></circle><circle r="45" cx="338" cy="122"></circle><circle r="39" cx="617" cy="536"></circle><circle r="44" cx="29" cy="80"></circle><circle r="35" cx="581" cy="222"></circle><circle r="40" cx="152" cy="461"></circle><circle r="49" cx="854" cy="339"></circle><circle r="48" cx="270" cy="535"></circle><circle r="44" cx="299" cy="363"></circle><circle r="49" cx="288" cy="9"></circle><circle r="49" cx="860" cy="140"></circle><circle r="29" cx="554" cy="17"></circle><circle r="46" cx="387" cy="495"></circle><circle r="48" cx="723" cy="339"></circle><circle r="25" cx="826" cy="483"></circle><circle r="26" cx="528" cy="347"></circle><circle r="38" cx="511" cy="145"></circle><circle r="30" cx="958" cy="27"></circle><circle r="26" cx="155" cy="201"></circle></g></svg>